<svg width="50" height="50" viewBox="0 0 50 50" fill="none" xmlns="http://www.w3.org/2000/svg">
<path d="M15.1232 0H15.9051C16.7913 0.385737 17.1562 1.05296 17.0832 2.01209C17.0415 2.63761 17.0832 3.26313 17.0832 3.87822H20.2004C20.2004 3.24228 20.2421 2.62718 20.2004 2.01209C20.1274 1.05296 20.4923 0.385737 21.3784 0H22.1603C23.0465 0.385737 23.4114 1.05296 23.3384 2.01209C23.2967 2.63761 23.3384 3.26313 23.3384 3.87822H26.4556C26.4556 3.24228 26.4973 2.62718 26.4556 2.01209C26.3826 1.05296 26.7475 0.385737 27.6336 0H28.4155C29.3017 0.385737 29.6666 1.05296 29.5936 2.01209C29.5519 2.63761 29.5936 3.26313 29.5936 3.87822H32.7108C32.7108 3.24228 32.7525 2.62718 32.7108 2.01209C32.6378 1.05296 33.0027 0.385737 33.8888 0H34.6707C35.5569 0.385737 35.9218 1.05296 35.8488 2.01209C35.8071 2.63761 35.8488 3.26313 35.8488 3.89907C36.6098 3.89907 37.2875 3.89907 37.9651 3.89907C42.594 3.89907 45.9822 7.29773 45.9926 11.9266C45.9926 12.6146 45.9926 13.3131 45.9926 14.0429C46.6599 14.0429 47.275 14.0846 47.8796 14.0429C48.8388 13.9699 49.506 14.3348 49.8917 15.221V16.0029C49.506 16.889 48.8388 17.2539 47.8796 17.1809C47.2541 17.1392 46.6286 17.1809 46.0135 17.1809V20.2981C46.6494 20.2981 47.2645 20.3398 47.8796 20.2981C48.8388 20.2251 49.506 20.59 49.8917 21.4762V22.2581C49.506 23.1442 48.8388 23.5091 47.8796 23.4361C47.2541 23.3944 46.6286 23.4361 46.0135 23.4361V26.5533C46.6494 26.5533 47.2645 26.595 47.8796 26.5533C48.8388 26.4803 49.506 26.8452 49.8917 27.7314V28.5133C49.506 29.3994 48.8388 29.7643 47.8796 29.6913C47.2541 29.6496 46.6286 29.6913 46.0135 29.6913V32.8085C46.6494 32.8085 47.2645 32.8502 47.8796 32.8085C48.8388 32.7355 49.506 33.1004 49.8917 33.9866V34.7685C49.506 35.6546 48.8388 36.0195 47.8796 35.9465C47.2645 35.9048 46.6494 35.9465 45.9926 35.9465C45.9926 36.7806 46.0239 37.5729 45.9926 38.3652C45.8571 41.6179 44.3246 43.9636 41.4055 45.3919C40.3734 45.8923 39.2475 46.1008 38.1007 46.0904C37.3605 46.0904 36.6203 46.0904 35.8592 46.0904C35.8592 46.914 35.8592 47.6542 35.8592 48.4048C35.8592 49.0512 35.5569 49.5307 34.9939 49.8227C33.9722 50.3543 32.7733 49.6141 32.7525 48.4361C32.7316 47.6646 32.7525 46.8931 32.7525 46.1217H29.6874C29.6666 46.1738 29.6457 46.2051 29.6457 46.2363C29.6457 46.914 29.6457 47.6021 29.6457 48.2797C29.6457 49.2805 29.0098 49.9895 28.1028 49.9999C27.1853 50.0103 26.5285 49.3014 26.5181 48.2797C26.5181 47.5708 26.5181 46.8619 26.5181 46.1321H23.4009C23.4009 46.8619 23.4009 47.5604 23.4009 48.2484C23.4009 49.2805 22.765 49.9999 21.8476 49.9999C20.9301 49.9999 20.2838 49.291 20.2838 48.2589C20.2838 47.5499 20.2838 46.841 20.2838 46.1321H17.1562C17.1562 46.9453 17.177 47.7272 17.1562 48.5091C17.1353 49.2076 16.6558 49.7705 15.9781 49.9478C15.3526 50.1146 14.6228 49.8539 14.2996 49.2597C14.1433 48.9782 14.0703 48.6133 14.0599 48.2901C14.0286 47.5708 14.0494 46.841 14.0494 46.1008C13.1945 46.1008 12.4127 46.1217 11.6412 46.1008C8.53443 45.9861 6.23043 44.5579 4.76046 41.8264C4.17664 40.7318 3.91601 39.5537 3.91601 38.3131C3.91601 37.5416 3.91601 36.7701 3.91601 36.0091C3.82218 35.9882 3.7909 35.9674 3.75963 35.9674C3.06113 35.9674 2.36263 36.0091 1.66413 35.9465C1.2784 35.9153 0.871809 35.7693 0.559049 35.5504C0.0377826 35.1751 -0.108172 34.4766 0.11076 33.8823C0.340117 33.2568 0.882234 32.8606 1.55988 32.8502C2.33136 32.8398 3.10283 32.8502 3.8743 32.8502V29.7226C3.0924 29.7226 2.34178 29.7226 1.59116 29.7226C0.903085 29.7226 0.402669 29.389 0.13161 28.7635C-0.316679 27.7522 0.433945 26.6367 1.57031 26.6054C2.34178 26.5846 3.11326 26.6054 3.88473 26.6054V23.5404C3.8326 23.5195 3.80133 23.4987 3.77005 23.4987C3.0924 23.4987 2.40433 23.4987 1.72669 23.4987C0.725854 23.4987 0.0169319 22.8627 0.00650655 21.9557C-0.00391878 21.0279 0.705004 20.3815 1.72669 20.3711C2.43561 20.3711 3.14453 20.3711 3.8743 20.3711V17.2539C3.14453 17.2539 2.45646 17.2539 1.75796 17.2539C0.725854 17.2539 0.00650655 16.618 0.00650655 15.7005C0.00650655 14.7831 0.715429 14.1367 1.74754 14.1367C2.45646 14.1367 3.16538 14.1367 3.91601 14.1367C3.91601 13.3861 3.91601 12.6876 3.91601 11.9891C3.91601 7.39156 7.32509 3.9929 11.9331 3.9929C12.6316 3.9929 13.3197 3.9929 14.0599 3.9929C14.0599 3.32568 14.1016 2.71059 14.0599 2.10592C13.9869 1.14679 14.3518 0.479565 15.2379 0.093828L15.1232 0ZM42.8233 25.0208C42.8233 20.6839 42.8233 16.3365 42.8233 11.9996C42.8233 9.00749 40.8425 7.01625 37.8505 7.01625C29.2079 7.01625 20.5548 7.01625 11.9122 7.01625C8.90974 7.01625 6.92893 8.99706 6.92893 11.9891C6.92893 20.6317 6.92893 29.2848 6.92893 37.9274C6.92893 40.9298 8.90974 42.9107 11.9018 42.9107C20.5444 42.9107 29.1974 42.9107 37.84 42.9107C40.8425 42.9107 42.8233 40.9298 42.8233 37.9378C42.8233 33.6321 42.8233 29.3265 42.8233 25.0208Z" fill="#F2771A"/>
<path d="M24.8502 41.3573C20.5237 41.3573 16.2076 41.3573 11.8811 41.3573C9.76474 41.3573 8.48242 40.075 8.48242 37.9482C8.48242 29.2848 8.48242 20.6213 8.48242 11.9579C8.48242 9.87282 9.77516 8.58008 11.8498 8.58008C20.5237 8.58008 29.208 8.58008 37.8819 8.58008C39.9669 8.58008 41.2492 9.87282 41.2492 11.9579C41.2492 20.6318 41.2492 29.3161 41.2492 37.9899C41.2492 40.0437 39.9565 41.3469 37.9027 41.3469C33.5449 41.3469 29.1871 41.3469 24.8398 41.3469L24.8502 41.3573ZM24.0996 28.1171C24.0996 28.3152 24.0996 28.4716 24.0996 28.628C24.0996 29.7331 24.0996 30.8382 24.0996 31.9432C24.0996 32.6522 24.4332 33.163 25.0795 33.4341C26.1012 33.8824 27.2167 33.09 27.2167 31.9224C27.2167 28.0233 27.2167 24.1242 27.2167 20.2252C27.2167 19.9541 27.175 19.6726 27.1333 19.4016C26.7163 16.6493 24.2455 14.6893 21.4098 14.8353C18.7097 14.9812 16.3744 17.2435 16.3223 19.9437C16.2493 23.9679 16.291 28.0025 16.3014 32.0266C16.3014 32.8294 16.9582 33.4862 17.7401 33.5383C18.5012 33.5904 19.2205 33.0692 19.3769 32.2977C19.4186 32.0892 19.4082 31.8807 19.4082 31.6722C19.4082 30.4941 19.4082 29.3056 19.4082 28.1067H24.0891L24.0996 28.1171ZM30.3443 24.1868C30.3443 26.7202 30.3339 29.2535 30.3548 31.7973C30.3548 32.1518 30.4486 32.5479 30.6258 32.8502C30.9594 33.4445 31.6892 33.6738 32.3252 33.4862C33.0445 33.2673 33.4615 32.6834 33.4615 31.8598C33.4615 26.7723 33.4615 21.6847 33.4615 16.5972C33.4615 15.5233 32.8256 14.8144 31.8873 14.8144C30.949 14.8144 30.3443 15.5338 30.3443 16.618C30.3443 19.1409 30.3443 21.6534 30.3443 24.1764V24.1868Z" fill="#F2771A"/>
<path d="M24.0999 24.959H19.4502C19.4398 24.8339 19.4189 24.7297 19.4189 24.6254C19.4189 23.1971 19.4189 21.7689 19.4189 20.3406C19.4189 18.9957 20.4406 17.9636 21.7334 17.9532C23.047 17.9428 24.0895 18.9749 24.0999 20.3406C24.1103 21.8627 24.0999 23.3848 24.0999 24.959Z" fill="#F2771A"/>
</svg>
